<?xml version="1.0" encoding="UTF-8" standalone="no"?>
<!-- Created with Inkscape (http://www.inkscape.org/) -->

<svg
   xmlns:dc="http://purl.org/dc/elements/1.1/"
   xmlns:cc="http://creativecommons.org/ns#"
   xmlns:rdf="http://www.w3.org/1999/02/22-rdf-syntax-ns#"
   xmlns:svg="http://www.w3.org/2000/svg"
   xmlns="http://www.w3.org/2000/svg"
   xmlns:sodipodi="http://sodipodi.sourceforge.net/DTD/sodipodi-0.dtd"
   xmlns:inkscape="http://www.inkscape.org/namespaces/inkscape"
   width="1024"
   height="1024"
   viewBox="0 0 270.93333 270.93334"
   version="1.1"
   id="svg6446"
   inkscape:version="0.92.2 (5c3e80d, 2017-08-06)"
   sodipodi:docname="logo.svg">
  <defs
     id="defs6440" />
  <sodipodi:namedview
     id="base"
     pagecolor="#ffffff"
     bordercolor="#666666"
     borderopacity="1.0"
     inkscape:pageopacity="0.0"
     inkscape:pageshadow="2"
     inkscape:zoom="0.49497475"
     inkscape:cx="725.69198"
     inkscape:cy="532.75088"
     inkscape:document-units="mm"
     inkscape:current-layer="layer1"
     showgrid="false"
     inkscape:window-width="1680"
     inkscape:window-height="987"
     inkscape:window-x="2728"
     inkscape:window-y="-8"
     inkscape:window-maximized="1"
     units="px" />
  <metadata
     id="metadata6443">
    <rdf:RDF>
      <cc:Work
         rdf:about="">
        <dc:format>image/svg+xml</dc:format>
        <dc:type
           rdf:resource="http://purl.org/dc/dcmitype/StillImage" />
        <dc:title></dc:title>
      </cc:Work>
    </rdf:RDF>
  </metadata>
  <g
     inkscape:label="Layer 1"
     inkscape:groupmode="layer"
     id="layer1"
     transform="translate(0,-26.06665)">
    <g
       transform="matrix(0.29796882,0,0,0.29796882,-71.741104,-56.026483)"
       id="g6405">
      <g
         style="fill:#4caf50;fill-opacity:1"
         transform="rotate(90,-911.87774,1379.6615)"
         id="g6081-5-0">
        <path
           inkscape:connector-curvature="0"
           id="path6095-12-5"
           d="m -1800.2509,154.36331 c -72.8674,-47.11672 -124.2113,-103.046857 -161.9774,-176.44567 -42.708,-83.00346 -58.6254,-173.36009 -46.7129,-265.16965 6.4903,-50.01984 20.8957,-96.95523 43.8897,-142.9997 16.7619,-33.56502 35.0395,-61.67954 58.1038,-89.375 11.2564,-13.51652 37.3212,-40.08274 48.9477,-49.88915 l 7.2138,-6.0846 15.2862,1.51434 c 8.4073,0.83288 22.8798,2.89989 32.1611,4.59335 16.305,2.97501 51.4543,12.04972 54.885,14.16998 2.158,1.33374 2.0851,3.89725 -0.6061,21.32108 -1.6153,10.45833 -2.2862,22.96774 -2.4623,45.91209 l -0.242,31.5371 -15.5501,15.3379 c -25.2397,24.89539 -43.6507,49.88847 -58.2598,79.08791 -20.0881,40.1507 -29.6518,78.40801 -31.0914,124.375 -2.2447,71.67023 20.3671,139.174275 65.319,195 18.3465,22.784413 45.5793,47.2514875 70.1952,63.066175 6.3594,4.085638 11.5625,8.092025 11.5625,8.903075 0,2.382175 -2.3268,3.669 -17.7087,9.793638 -18.5472,7.384987 -30.8878,11.145012 -53.5413,16.313337 l -18.125,4.13515 0.3435,12.956813 c 0.5777,21.7871 4.8139,49.771592 11.4961,75.943302 1.3945,5.46152 2.5354,10.53945 2.5354,11.28427 0,2.955 -6.1126,0.89403 -15.662,-5.28074 z"
           style="fill:#4caf50;fill-opacity:1;stroke-width:1.25" />
        <path
           inkscape:connector-curvature="0"
           id="path6093-3-7"
           d="m -1800.2139,153.24636 c -59.7218,-37.90256 -108.0988,-86.74892 -144.7599,-146.1643825 -34.1372,-55.3252125 -54.4394,-113.2796975 -63.6549,-181.7086875 -3.2218,-23.92287 -3.8405,-77.0938 -1.1636,-100 9.309,-79.6573 35.8279,-150.71441 79.3062,-212.5 19.3079,-27.43782 41.2825,-52.6727 63.3292,-72.7252 15.1114,-13.74449 15.7224,-14.1498 21.3295,-14.1498 20.2747,0 80.5026,12.14696 94.9031,19.14037 3.8088,1.84968 3.8126,1.984 0.6876,23.98463 -1.6765,11.80324 -2.3313,24.14089 -2.3927,45.08601 l -0.084,28.83601 -15.6809,15.53899 c -8.6245,8.54644 -19.2417,19.94024 -23.5938,25.31955 -25.9367,32.05842 -46.449,72.74819 -56.257,111.59598 -11.9759,47.43453 -12.9181,89.10674 -3.1174,137.87546 8.5929,42.75863 30.7609,89.333675 59.3498,124.6942 17.986,22.2462 47.4821,48.684675 70.2842,62.998375 5.9626,3.742987 10.8522,7.532075 10.8657,8.4202 0.034,2.214238 -13.3396,8.048213 -34.9756,15.25795 -16.0736,5.3562 -44.0663,12.502275 -48.9741,12.502275 -0.9889,0 -2.7313,0.703125 -3.872,1.5625 -1.8654,1.405438 -1.9469,3.2588 -0.8105,18.4375 1.6339,21.825288 5.1023,44.47433 9.8578,64.3732 2.0893,8.74266 3.7988,16.39774 3.7988,17.01127 0,2.46867 -4.8782,0.64079 -14.375,-5.3864 z"
           style="fill:#4caf50;fill-opacity:1;stroke-width:1.25" />
        <path
           inkscape:connector-curvature="0"
           id="path6091-26-2"
           d="m -1807.9802,147.36388 c -111.8285,-74.167565 -182.7214,-188.31629 -199.9745,-321.99059 -3.1738,-24.58966 -3.1618,-85.25148 0.022,-109.375 12.5881,-95.39201 50.6768,-177.93276 114.7866,-248.75 9.8533,-10.88426 29.4263,-29.75204 40.4732,-39.01498 2.2548,-1.89071 3.9418,-1.99056 15,-0.88777 28.2208,2.81434 59.7582,9.12274 81.6808,16.33855 l 7.9714,2.62379 -0.7472,6.4077 c -0.411,3.52425 -1.3492,10.34521 -2.0849,15.15771 -2.1268,13.912 -3.4114,43.72988 -2.5579,59.375 l 0.7842,14.375 -15.0866,15 c -50.0517,49.76442 -79.674,109.00856 -88.7507,177.5 -2.5922,19.56061 -2.5922,54.18939 0,73.75 11.634,87.78839 60.2929,165.627775 132.8726,212.5557 7.0359,4.549213 11.3859,8.159538 11.1854,9.283425 -0.7591,4.254713 -44.7114,19.329225 -74.0577,25.399925 l -13.75,2.844375 0.1939,14.958288 c 0.2352,18.152374 4.0594,45.253997 9.6486,68.378717 3.9145,16.19607 4.155,18.45457 1.965,18.45457 -0.4955,0 -9.3037,-5.57299 -19.5738,-12.38441 z"
           style="fill:#4caf50;fill-opacity:1;stroke-width:1.25" />
        <path
           inkscape:connector-curvature="0"
           id="path6089-0-5"
           d="m -1800.2139,151.99636 c -58.2849,-36.99063 -107.7292,-86.918495 -143.5107,-144.9143825 -45.9506,-74.4782995 -69.3732,-161.7308875 -66.7313,-248.5836875 3.7212,-122.33494 54.8297,-234.68129 144.7906,-318.27764 l 14.2014,-13.1967 12.0859,0.73679 c 22.8227,1.39133 63.9906,9.76266 85.4141,17.36865 5.9129,2.09926 5.8569,1.55058 2.5123,24.6189 -1.6265,11.21766 -2.3003,23.7717 -2.3889,44.50686 l -0.1234,28.88187 -12.6791,12.05596 c -39.7884,37.83284 -69.5898,88.2697 -82.8845,140.27617 -6.6542,26.03013 -9.1513,46.63928 -9.1513,75.52914 0,28.88986 2.4971,49.49901 9.1513,75.52914 17.7365,69.38221 62.3507,131.83051 123.5282,172.907372 13.9605,9.37365 14.1677,9.582125 11.5932,11.66685 -6.1642,4.991463 -47.2305,18.31205 -72.771,23.604551 -7.1393,1.479412 -13.3972,3.359724 -13.9065,4.178462 -0.5093,0.81875 -0.6823,3.457375 -0.3844,5.863625 0.2979,2.40625 0.8846,9.969275 1.3038,16.806725 1.0657,17.3858 4.7008,40.977645 9.2281,59.890245 2.116,8.83959 3.8472,16.29272 3.8472,16.5625 0,1.56127 -4.2864,-0.40195 -13.125,-6.0114 z"
           style="fill:#4caf50;fill-opacity:1;stroke-width:1.25" />
        <path
           inkscape:connector-curvature="0"
           id="path6087-4-9"
           d="m -1807.745,146.2671 c -67.269,-44.62456 -118.2202,-101.854823 -154.3699,-173.39381 -24.9951,-49.464387 -39.0966,-97.60672 -45.5847,-155.625 -2.3789,-21.27319 -2.7247,-66.4122 -0.6654,-86.875 9.3728,-93.13746 43.6822,-176.1726 101.8408,-246.47399 11.6042,-14.02697 40.6696,-43.7428 50.9545,-52.09474 l 5.8941,-4.78642 13.4809,1.40769 c 26.6376,2.78152 67.2457,11.30967 83.3396,17.50227 4.0901,1.57378 4.0774,-1.40054 0.1287,30.07019 -1.3225,10.54004 -1.8701,23.83706 -1.6827,40.85893 l 0.278,25.23392 -14.9919,14.76608 c -40.3744,39.76626 -67.8038,87.0478 -81.1843,139.94131 -7.0892,28.02401 -8.6324,41.28921 -8.6324,74.19976 0,32.91055 1.5432,46.17575 8.6324,74.19976 18.0584,71.385877 62.56,133.716977 125.4059,175.64984 6.3594,4.243187 11.5625,8.210388 11.5625,8.816 0,3.765788 -50.4869,20.172525 -77.5,25.185188 -4.4688,0.829237 -8.9001,2.118112 -9.8473,2.864162 -3.5666,2.808888 0.8879,45.66301 8.1735,78.63331 2.397,10.8478 4.1622,20.31164 3.9225,21.03074 -0.2397,0.71911 -8.8594,-4.28048 -19.1548,-11.11019 z"
           style="fill:#4caf50;fill-opacity:1;stroke-width:1.25" />
        <path
           inkscape:connector-curvature="0"
           id="path6085-7-2"
           d="m -1798.3389,151.95511 c -87.3345,-55.334757 -153.4831,-138.155495 -186.3982,-233.378207 -38.37,-111.003683 -31.7147,-234.395153 18.3221,-339.698513 23.8159,-50.12106 53.5857,-91.29754 95.0934,-131.52981 l 19.8017,-19.19328 11.903,0.74257 c 21.3633,1.33272 54.1988,7.65389 79.8651,15.37483 l 10.4621,3.14723 -0.8098,4.60169 c -3.459,19.65418 -4.7165,35.99938 -4.7677,61.96715 l -0.056,28.61548 -13.1272,12.63452 c -49.5021,47.64388 -80.914,109.42312 -89.6836,176.38452 -2.7547,21.03391 -2.7717,58.27586 -0.036,78.75 9.1028,68.12473 40.1408,128.847487 90.5496,177.151138 14.2807,13.6843245 32.8571,28.415224 45.4535,36.044262 3.9091,2.367538 7.1234,4.965075 7.1429,5.772313 0.082,3.417475 -39.4057,16.843787 -68.7146,23.363499 l -18.125,4.031876 0.1721,16.818449 c 0.2247,21.965338 5.5096,56.297233 12.4504,80.880963 1.0735,3.80209 -0.041,3.51104 -9.4975,-2.48068 z"
           style="fill:#4caf50;fill-opacity:1;stroke-width:1.25" />
        <path
           inkscape:connector-curvature="0"
           id="path6083-2-3"
           d="m -1807.0889,144.98625 c -102.7198,-68.906885 -171.0583,-171.373772 -193.5692,-290.23796 -5.8879,-31.08966 -6.964,-44.03067 -6.964,-83.75 0,-40.594 1.0899,-53.12692 7.5131,-86.3942 14.7298,-76.28999 49.6975,-147.61522 101.9638,-207.9808 11.531,-13.31776 41.5156,-43.05726 46.6534,-46.27207 6.1399,-3.84176 69.1059,6.77303 95.0279,16.01974 5.9214,2.11227 5.8547,1.45944 2.5828,25.25233 -1.5693,11.41172 -2.2469,24.43786 -2.2761,43.75 l -0.041,27.5 -8.8583,8.125 c -51.2053,46.96613 -84.9632,112.31141 -93.8696,181.7038 -2.3739,18.49638 -2.718,53.00585 -0.7058,70.7962 5.1854,45.84451 20.26,88.91178 44.7279,127.784863 21.6047,34.324275 54.4128,67.8745745 88.6594,90.665225 5.6905,3.786962 10.0688,7.334525 9.7295,7.883462 -2.0301,3.284875 -42.1757,16.427725 -66.3127,21.70945 -8.1871,1.791525 -16.1513,3.537963 -17.6981,3.880975 -2.6061,0.577875 -2.8125,1.300338 -2.8125,9.8424 0,18.85945 4.6809,53.406585 10.4947,77.454975 1.9002,7.8603 2.4267,12.00804 1.5191,11.96918 -0.7639,-0.0327 -7.8576,-4.39887 -15.7638,-9.70257 z"
           style="fill:#4caf50;fill-opacity:1;stroke-width:1.25" />
      </g>
      <g
         style="fill:#2196f3;fill-opacity:1"
         transform="rotate(90,-912.36384,1380.1691)"
         id="g6097-2-6">
        <path
           inkscape:connector-curvature="0"
           id="path6111-6-8"
           d="m -1197.7139,-235.37582 c -12.8549,-10.95556 -34.8161,-25.54931 -53.4232,-35.50089 -8.9982,-4.8125 -16.7844,-9.59375 -17.3027,-10.625 -0.5182,-1.03125 -2.7492,-9.46875 -4.9577,-18.75 -32.0923,-134.86616 -158.1121,-229.85812 -297.963,-224.60025 -43.8406,1.64825 -79.4624,10.42298 -118.1619,29.1069 -10.6197,5.12712 -20.0823,9.02511 -21.028,8.66219 -1.3186,-0.50601 -1.532,-2.33653 -0.9153,-7.85184 2.4906,-22.27325 9.1124,-51.99526 16.2022,-72.72344 1.746,-5.1048 3.1746,-10.21704 3.1746,-11.36055 0,-5.00339 -56,-27.94028 -88.4375,-36.22287 -8.7579,-2.23624 -7.1966,-4.85845 7.5,-12.59625 93.8477,-49.41124 196.8742,-64.53291 301.1489,-44.201 58.3366,11.37472 120.1168,37.93301 171.0911,73.54923 91.3569,63.832 157.221,162.81288 181.232,272.3564 3.526,16.08646 3.6514,17.51363 1.8694,21.26891 -2.4855,5.23788 -17.5892,25.33853 -29.1209,38.75534 -12.7324,14.8137 -37.3321,38.37378 -39.9627,38.27377 -1.2074,-0.0459 -6.1328,-3.4392 -10.9453,-7.54065 z"
           style="fill:#2196f3;fill-opacity:1;stroke-width:1.25" />
        <path
           inkscape:connector-curvature="0"
           id="path6109-0-9"
           d="m -1197.7139,-236.61326 c -12.1825,-10.36504 -37.1902,-26.89455 -54.9562,-36.32471 -12.8496,-6.82054 -15.0907,-8.46694 -15.9112,-11.68874 -0.5253,-2.0625 -2.6212,-10.57665 -4.6577,-18.92034 -9.4395,-38.67599 -30.2723,-80.20795 -56.4555,-112.5491 -10.1601,-12.54959 -31.5109,-33.89832 -44.0732,-44.06891 -31.4901,-25.49488 -72.8683,-46.43068 -111.1452,-56.2353 -70.5239,-18.0647 -142.7232,-10.86759 -207.0228,20.63689 -11.6245,5.69557 -17.1199,7.79503 -18.0277,6.88726 -3.1579,-3.15789 6.9926,-54.19025 15.9186,-80.03194 1.7632,-5.1048 3.2059,-9.93642 3.2059,-10.73695 0,-1.80449 -32.654,-17.54555 -48.858,-23.55227 -6.5907,-2.44313 -18.9657,-6.51621 -27.5,-9.05129 -8.5344,-2.53509 -16.0795,-5.13154 -16.767,-5.76988 -2.0657,-1.91801 3.7302,-5.68166 23.75,-15.4223 50.3861,-24.51542 97.0206,-37.91537 155,-44.53766 17.856,-2.03948 71.1419,-2.06014 88.75,-0.0344 101.9858,11.73295 186.4763,49.82467 262.0622,118.14827 35.7866,32.34822 73.8226,82.76922 96.4189,127.81421 14.2082,28.3235 27.6661,65.03474 35.1377,95.85047 6.9404,28.62454 6.9234,27.24448 0.4538,36.97392 -15.292,22.99685 -58.6263,70.33754 -64.205,70.14087 -1.3022,-0.0459 -6.3051,-3.43353 -11.1176,-7.52809 z"
           style="fill:#2196f3;fill-opacity:1;stroke-width:1.25" />
        <path
           inkscape:connector-curvature="0"
           id="path6107-5-4"
           d="m -1195.8389,-235.99111 c -11.8195,-9.9739 -40.9998,-29.21312 -56.875,-37.49899 -7.5625,-3.94713 -13.9341,-7.31419 -14.1591,-7.48232 -0.2249,-0.16815 -1.7299,-6.12165 -3.3443,-13.23 -27.9349,-122.99853 -127.7905,-213.66269 -253.796,-230.43474 -19.4211,-2.58505 -54.0672,-2.57735 -73.7006,0.0164 -32.2403,4.25921 -65.3673,14.07623 -93.1782,27.61284 -9.0467,4.40341 -16.9545,8.00621 -17.5727,8.00621 -4.5851,0 4.2227,-47.15536 14.4661,-77.44975 3.5383,-10.46419 4.1079,-13.3822 2.8529,-14.61455 -2.6081,-2.56101 -28.1418,-14.79142 -43.4431,-20.80886 -7.9063,-3.10924 -21.4063,-7.7196 -30,-10.24526 -8.5938,-2.52565 -16.3749,-4.82627 -17.2915,-5.11249 -3.1851,-0.99466 -0.622,-3.67443 8.5158,-8.90357 31.0461,-17.76622 80.5721,-35.57805 122.5257,-44.06589 33.4381,-6.76504 48.2809,-8.1181 89.375,-8.1474 41.3379,-0.0295 57.3598,1.41445 90.8267,8.18547 158.2628,32.01967 289.4478,149.45094 338.5296,303.0373 5.574,17.44228 12.4285,44.87314 13.3492,53.42189 0.9041,8.39483 0.4264,9.28609 -16.9251,31.57811 -10.6417,13.67176 -48.4817,53.18555 -50.8109,53.05845 -0.6707,-0.0366 -4.8758,-3.15189 -9.3445,-6.92285 z"
           style="fill:#2196f3;fill-opacity:1;stroke-width:1.25" />
        <path
           inkscape:connector-curvature="0"
           id="path6105-7-1"
           d="m -1199.12,-239.1843 c -14.7671,-11.89017 -35.3214,-25.31692 -53.1671,-34.73053 l -14.5732,-7.68738 -2.1017,-9.63725 c -19.5712,-89.74275 -78.663,-165.53035 -160.0019,-205.20888 -44.3662,-21.64258 -82.4295,-30.41099 -131.875,-30.37919 -48.7567,0.0314 -89.505,9.31683 -131.2496,29.90842 -9.3262,4.60035 -16.0938,7.25626 -16.7874,6.58804 -2.876,-2.77109 7.6318,-54.11549 16.0811,-78.57708 1.7632,-5.1048 3.2059,-10.02197 3.2059,-10.92706 0,-3.82135 -43.0012,-22.91806 -71.25,-31.64196 -9.2813,-2.86626 -18.2756,-5.7813 -19.9875,-6.47786 -3.0558,-1.24337 -3.0672,-1.29959 -0.6291,-3.08241 4.2184,-3.08457 28.0555,-14.92414 42.0597,-20.89047 41.3034,-17.59691 82.6238,-28.67131 127.3143,-34.12188 22.2919,-2.71877 76.232,-3.1166 96.8676,-0.71443 55.5094,6.46179 104.4333,20.57113 152.5,43.98005 93.8041,45.68345 171.215,126.04505 213.0977,221.22047 12.2232,27.77642 23.9175,64.3203 29.4682,92.08653 l 2.2789,11.39954 -4.2974,6.72546 c -12.6665,19.82325 -58.8344,71.10046 -64.016,71.10046 -1.0139,0 -6.8358,-4.01966 -12.9375,-8.93259 z"
           style="fill:#2196f3;fill-opacity:1;stroke-width:1.25" />
        <path
           inkscape:connector-curvature="0"
           id="path6103-0-9"
           d="m -1195.8389,-237.20943 c -12.3667,-10.38744 -35.6271,-25.87849 -53.9155,-35.9068 l -16.4322,-9.01048 -4.656,-18.75 c -8.3535,-33.64041 -21.8345,-64.40435 -40.4143,-92.22627 -24.3924,-36.52606 -48.965,-61.09522 -85.5165,-85.50466 -34.9963,-23.37082 -76.5737,-39.33231 -120.4907,-46.25619 -19.9477,-3.14493 -67.1123,-3.14659 -87.3248,-0.003 -30.2339,4.70207 -59.0701,13.6883 -87.3343,27.21609 -8.5027,4.06952 -15.6746,7.39911 -15.9375,7.39911 -1.0714,0 -0.3623,-10.75361 1.4639,-22.20096 2.4598,-15.41911 8.2134,-38.5621 13.5876,-54.65335 2.2923,-6.86362 3.926,-13.10964 3.6304,-13.88002 -0.7741,-2.01772 -32.2837,-16.99846 -49.1601,-23.373 -7.9063,-2.98633 -20.9773,-7.36212 -29.0468,-9.72397 -8.0695,-2.36185 -14.4978,-4.85677 -14.2851,-5.54427 0.5456,-1.76374 25.0058,-14.35139 42.0819,-21.65609 44.1265,-18.87612 90.3441,-30.64972 138.125,-35.18632 20.462,-1.94279 64.8261,-1.63649 86.068,0.59423 133.5265,14.02227 250.9778,84.04024 326.1313,194.42142 34.714,50.98605 59.7199,111.44937 70.1117,169.52818 0.8534,4.76942 -3.4346,11.84919 -19.1836,31.67358 -10.6235,13.37253 -46.0217,50.05435 -48.186,49.93345 -0.6553,-0.0366 -4.8477,-3.13764 -9.3164,-6.89117 z"
           style="fill:#2196f3;fill-opacity:1;stroke-width:1.25" />
        <path
           inkscape:connector-curvature="0"
           id="path6101-8-0"
           d="m -1199.0483,-240.48185 c -14.3718,-11.55878 -36.6229,-26.0617 -53.2974,-34.73847 l -13.1517,-6.84361 -4.5142,-18.15639 c -21.5169,-86.54153 -79.7895,-158.92557 -158.9523,-197.44486 -48.0073,-23.35953 -97.884,-33.37628 -149.727,-30.06972 -42.3202,2.69919 -75.4547,11.32947 -113.7148,29.61833 -8.0805,3.86259 -15.039,6.67575 -15.4633,6.25146 -2.4833,-2.48332 7.2666,-49.4673 15.3025,-73.74149 2.4544,-7.41393 4.1523,-14.28824 3.7732,-15.27621 -1.7624,-4.59273 -47.1345,-24.45179 -74.797,-32.73811 -8.732,-2.61568 -16.0074,-5.31829 -16.1675,-6.00579 -0.3824,-1.64201 34.1826,-18.98686 51.1945,-25.68962 21.029,-8.28552 33.026,-12.15677 55.8494,-18.02166 59.1435,-15.19803 117.5908,-18.29825 177.9521,-9.4391 107.1937,15.73269 207.6991,71.83432 276.9687,154.60253 49.1543,58.73305 84.3588,131.96525 97.1019,201.99063 l 1.5364,8.44277 -5.7686,8.43223 c -10.752,15.71656 -27.2872,35.28742 -43.5777,51.57786 -8.9261,8.92615 -16.9386,16.22936 -17.8055,16.22936 -0.8669,0 -6.6006,-4.04106 -12.7417,-8.98014 z"
           style="fill:#2196f3;fill-opacity:1;stroke-width:1.25" />
        <path
           inkscape:connector-curvature="0"
           id="path6099-6-2"
           d="m -1197.0889,-240.33413 c -17.8488,-14.35562 -49.4684,-34.20914 -63.4534,-39.8415 -2.7208,-1.0958 -4.3218,-2.73412 -4.8097,-4.92182 -11.0158,-49.39457 -28.2489,-88.37025 -54.4257,-123.09315 -50.9013,-67.51947 -123.6958,-109.39729 -207.9362,-119.6232 -16.856,-2.04613 -52.6145,-1.68946 -71.3198,0.71139 -31.6545,4.0629 -65.1389,14.14303 -93.3677,28.10737 l -14.6875,7.26569 0.01,-3.32369 c 0.023,-11.63596 9.9663,-55.82866 16.8619,-74.94505 1.8016,-4.99426 2.9568,-10.08483 2.5672,-11.31236 -0.4239,-1.33544 -7.1052,-5.31795 -16.6346,-9.91532 -24.2533,-11.70083 -35.4126,-15.95664 -70.8822,-27.03239 l -4.956,-1.54757 17.8714,-9.06807 c 46.3615,-23.52404 97.2918,-38.70076 152.0411,-45.3067 21.3451,-2.57546 80.726,-2.2326 102.5,0.59182 78.1918,10.14266 146.0583,36.61081 208.5795,81.34666 75.267,53.8559 133.4496,132.96068 163.2767,221.99031 5.1059,15.24037 13.5198,48.03995 14.5057,56.54719 0.7558,6.52229 0.6953,6.67174 -7.1673,17.70299 -4.3612,6.11885 -13.0268,17.0876 -19.2568,24.375 -12.4526,14.56633 -36.6556,38.88705 -38.6655,38.85372 -0.6998,-0.0113 -5.4911,-3.4142 -10.6473,-7.56132 z"
           style="fill:#2196f3;fill-opacity:1;stroke-width:1.25" />
      </g>
      <g
         style="fill:#f44336;fill-opacity:1"
         transform="rotate(90,-912.10994,1380.4445)"
         id="g6113-8-9">
        <path
           inkscape:connector-curvature="0"
           id="path6127-3-3"
           d="m -1585.8389,222.23359 c -39.5239,-2.3044 -77.6863,-9.50967 -116.3811,-21.9734 l -13.2562,-4.26985 -6.2935,-13.43352 c -10.7797,-23.0093 -21.7539,-55.8581 -26.5661,-79.51945 -1.2187,-5.99238 -1.1839,-7.63068 0.19,-8.945305 0.925,-0.885162 7.8543,-4.00385 15.3983,-6.930425 16.9643,-6.580987 40.8913,-18.71315 54.8483,-27.810737 15.9822,-10.417775 14.2684,-9.982213 25.3815,-6.450413 13.8805,4.411262 32.5385,8.80635 48.5538,11.437325 16.9073,2.7775 66.6652,3.1282 82.5,0.581462 26.6556,-4.287087 49.1079,-10.1299 68.4417,-17.810812 108.8848,-43.257575 181.3121,-143.50635 187.976,-260.183035 0.5114,-8.95339 1.4262,-15.17515 2.3432,-15.93617 3.2658,-2.71042 28.0266,17.49695 52.9606,43.22147 l 18.7531,19.34756 12.2627,-8.30274 c 18.2818,-12.37813 36.3519,-26.86517 51.5651,-41.34035 7.4664,-7.1043 14.4091,-12.91691 15.4282,-12.91691 2.7765,0 2.973,2.54605 1.9095,24.74729 -5.1721,107.967847 -52.6543,215.125797 -129.7651,292.853822 -58.7387,59.208888 -133.0618,101.509098 -212.6928,121.051808 -42.3095,10.38343 -91.6103,15.02804 -133.5572,12.58238 z"
           style="fill:#f44336;fill-opacity:1;stroke-width:1.25" />
        <path
           inkscape:connector-curvature="0"
           id="path6125-8-7"
           d="m -1588.3389,221.49805 c -42.6095,-3.72922 -75.5857,-9.99291 -108.2659,-20.56459 -8.86,-2.86612 -17.0665,-6.05553 -18.2366,-7.08757 -2.5882,-2.28279 -15.3944,-32.32797 -21.4598,-50.3476 -5.6107,-16.66885 -12.3067,-43.11171 -11.8004,-46.60045 0.3107,-2.141175 3.4912,-3.940075 16.0127,-9.056763 19.8791,-8.123262 42.3339,-19.623449 57.4436,-29.419687 l 11.8187,-7.6625 12.5563,3.825662 c 54.7438,16.679276 108.5387,17.969825 164.6017,3.948813 38.4842,-9.624638 80.2899,-30.698425 111.9009,-56.40795 12.7994,-10.409875 34.1177,-31.705425 44.1031,-44.055925 18.7719,-23.21825 37.9569,-57.005525 48.0754,-84.66706 9.0441,-24.72445 15.6474,-57.7356 17.673,-88.35164 0.4666,-7.05239 1.3843,-13.15371 2.0393,-13.5585 2.5179,-1.5562 26.3787,18.39879 48.1606,40.27728 l 22.7476,22.84842 12.2244,-8.17315 c 17.8169,-11.91215 36.1184,-26.56544 51.7184,-41.40874 17.8762,-17.00902 18.0792,-16.94835 16.901,5.05252 -6.1691,115.199407 -51.5491,218.8384075 -130.7098,298.51597 -72.1208,72.59178 -166.1393,118.25014 -268.7542,130.5156 -15.981,1.9102 -66.6221,3.4393 -78.75,2.37786 z"
           style="fill:#f44336;fill-opacity:1;stroke-width:1.25" />
        <path
           inkscape:connector-curvature="0"
           id="path6123-4-5"
           d="m -1605.2839,219.17719 c -32.1969,-3.3651 -63.4903,-9.87446 -93.3267,-19.41299 -17.8123,-5.69449 -16.1157,-3.87812 -26.2863,-28.14091 -10.033,-23.93435 -16.5898,-44.7603 -22.6822,-72.044475 -0.9481,-4.245737 -0.09,-4.878825 14.2402,-10.509 17.0297,-6.6907 43.7413,-20.315975 57.2226,-29.188637 6.3786,-4.198088 12.8474,-7.62295 14.375,-7.610813 1.5276,0.0125 8.0969,1.700762 14.5986,3.752475 26.4592,8.3497 56.0683,12.639575 86.9288,12.594588 113.9241,-0.16605 216.7328,-64.4912755 266.9007,-166.994138 17.9143,-36.6025 29.9743,-84.5073 29.9743,-119.06441 0,-6.91394 0.4502,-9.31183 1.8492,-9.84868 3.2268,-1.23822 22.7893,15.14953 46.6611,39.08842 12.5869,12.62232 23.3054,22.94967 23.8189,22.94967 1.6589,0 26.1281,-17.05173 39.539,-27.55335 7.1703,-5.61475 18.9104,-15.77469 26.0892,-22.57765 7.1788,-6.80295 13.4756,-12.369 13.9929,-12.369 1.3937,0 -0.3911,37.0957 -2.6162,54.375 -5.1499,39.99195 -14.2339,75.3606 -28.7336,111.875 -42.5719,107.207887 -129.1452,196.90827 -235.769,244.28519 -39.7326,17.65466 -79.3651,28.69513 -126.0815,35.1226 -20.1628,2.77409 -79.1859,3.51916 -100.695,1.27111 z"
           style="fill:#f44336;fill-opacity:1;stroke-width:1.25" />
        <path
           inkscape:connector-curvature="0"
           id="path6121-9-1"
           d="m -1589.5889,220.22217 c -36.7877,-3.32469 -65.4356,-8.38022 -94.5382,-16.68329 -29.9051,-8.53201 -29.0642,-8.05916 -34.7162,-19.52079 -10.2859,-20.8586 -25.441,-66.32859 -27.7696,-83.31774 l -0.7535,-5.497235 13.5763,-5.3542 c 17.0701,-6.732125 45.5625,-21.321262 59.9291,-30.685925 l 10.9917,-7.164712 10.7027,3.248537 c 56.0419,17.010088 111.8734,18.495775 166.8568,4.4401 90.6534,-23.174175 167.8236,-91.789463 202.3732,-179.938625 11.8142,-30.14254 16.9381,-54.52908 20.2888,-96.5625 0.5409,-6.78651 1.265,-9.6875 2.4178,-9.6875 4.9485,0 44.7653,35.82527 63.6092,57.23255 l 4.716,5.35755 4.5955,-2.74941 c 17.313,-10.35829 43.3391,-30.70058 60.9678,-47.65319 6.9704,-6.70312 13.3967,-12.1875 14.2806,-12.1875 1.2704,0 1.4329,3.46984 0.7756,16.5625 -5.4628,108.8173 -46.6224,207.3378375 -119.9637,287.1472 -6.3057,6.8618 -16.8087,17.352638 -23.3399,23.31298 -72.9517,66.5748 -157.0936,105.33952 -255,117.4802 -14.8481,1.84121 -67.904,3.31416 -80,2.221 z"
           style="fill:#f44336;fill-opacity:1;stroke-width:1.25" />
        <path
           inkscape:connector-curvature="0"
           id="path6119-2-4"
           d="m -1582.0889,219.65929 c -39.3414,-1.76866 -78.2192,-8.75382 -115.625,-20.77431 -7.5625,-2.43024 -14.5422,-5.0583 -15.5105,-5.84015 -2.4518,-1.9797 -10.2635,-19.30763 -17.6783,-39.21413 -6.4291,-17.25981 -16.7145,-54.65266 -15.7351,-57.204935 0.3027,-0.788788 6.6531,-3.8578 14.1121,-6.820012 17.5892,-6.985251 39.4191,-17.987726 53.5618,-26.995651 17.7361,-11.296624 15.4727,-10.7461 27.8689,-6.77855 31.1162,9.959113 63.4105,14.333776 98.3811,13.326938 26.6435,-0.7671 42.2959,-2.876275 66.1755,-8.917225 61.3057,-15.508863 119.2347,-52.7786 158.4516,-101.942975 39.4016,-49.395837 61.986,-108.08523 65.5403,-170.31755 0.5334,-9.33886 1.3379,-14.67439 2.2106,-14.66031 3.2943,0.0531 30.5325,23.82685 48.491,42.3233 10.7625,11.08501 19.9858,20.15456 20.496,20.15456 1.8894,0 29.0595,-18.88841 41.76,-29.03119 7.2187,-5.76497 18.2609,-15.37261 24.5382,-21.3503 6.2773,-5.97767 11.8484,-10.86851 12.3804,-10.86851 1.4409,0 -0.288,37.26524 -2.4872,53.60995 -8.1063,60.24472 -26.5556,115.038125 -56.0248,166.39005 -44.5954,77.710275 -114.7284,142.86303 -195.2403,181.37609 -53.3639,25.52677 -113.763,40.98022 -168.1663,43.02628 -9.9688,0.37492 -20.375,0.83872 -23.125,1.03067 -2.75,0.19195 -13.7188,-0.043 -24.375,-0.52204 z"
           style="fill:#f44336;fill-opacity:1;stroke-width:1.25" />
        <path
           inkscape:connector-curvature="0"
           id="path6117-6-7"
           d="m -1597.0889,218.46743 c -36.5432,-3.41508 -81.0034,-12.69419 -108.6896,-22.68419 l -8.0646,-2.90995 -6.6771,-14.92331 c -11.4447,-25.57919 -26.9553,-75.88374 -24.9826,-81.02464 0.346,-0.901538 5.615,-3.528738 11.709,-5.838213 15.1321,-5.734737 44.8125,-20.884437 59.2049,-30.219875 11.2941,-7.325762 12.089,-7.638087 16.25,-6.384887 32.0223,9.644413 52.0825,13.512025 78.7319,15.179575 54.5211,3.411563 108.7947,-7.893525 155.9871,-32.49185 76.9302,-40.09865 132.805,-110.8179 153.3602,-194.10406 4.7431,-19.21819 8.1708,-42.70036 8.1708,-55.97609 0,-8.68791 0.7607,-12.34165 2.5695,-12.34165 1.7767,0 24.9477,18.96559 36.1805,29.61385 5.8437,5.53967 15.0957,15.20529 20.5599,21.47914 5.4642,6.27386 10.319,11.40701 10.7884,11.40701 1.5337,0 30.3119,-19.69209 39.2537,-26.86008 4.7998,-3.8477 15.4108,-13.01887 23.5799,-20.38037 8.1692,-7.3615 15.4396,-13.60144 16.1564,-13.86651 1.6312,-0.60317 0.3385,26.26619 -2.3014,47.83664 -12.1741,99.471382 -54.8126,188.681807 -124.2654,259.994295 -72.9729,74.926915 -165.4264,120.147815 -272.5215,133.295935 -14.4698,1.77648 -70.3821,2.56532 -85,1.19923 z"
           style="fill:#f44336;fill-opacity:1;stroke-width:1.25" />
        <path
           inkscape:connector-curvature="0"
           id="path6115-4-1"
           d="m -1604.0171,216.67709 c -33.216,-3.4688 -64.3817,-9.9403 -93.5136,-19.41791 l -15.4705,-5.03309 -4.7222,-10.3014 c -11.0059,-24.00863 -24.3089,-64.2261 -26.3607,-79.6931 -0.7104,-5.35555 -0.5049,-6.301325 1.5245,-7.0132 20.9204,-7.338675 51.0748,-22.067613 68.7014,-33.557238 10.9648,-7.147175 11.2222,-7.239987 16.1434,-5.819912 42.3874,12.231575 62.3617,15.364625 97.5009,15.293425 48.4557,-0.09812 90.0591,-9.848438 132.3768,-31.02415 19.4114,-9.713438 32.3378,-17.61665 47.511,-29.048238 56.0444,-42.224237 95.8011,-102.939012 111.7693,-170.688987 4.3222,-18.33862 7.7179,-42.86251 7.7179,-55.73968 0,-4.77264 0.5449,-8.63532 1.2181,-8.63532 4.0235,0 40.3798,32.6058 54.9501,49.28141 6.5782,7.52871 11.3702,11.96859 12.9178,11.96859 2.9498,0 26.3652,-15.53451 40.6844,-26.99135 5.649,-4.51972 16.5369,-13.91177 24.1954,-20.87124 l 13.9246,-12.65356 -0.899,17.44558 c -6.9696,135.259283 -74.3344,259.390233 -183.9773,339.00938 -62.0621,45.06752 -130.6884,72.17388 -208.2709,82.2639 -21.2575,2.76468 -76.5581,3.45709 -97.9214,1.22609 z"
           style="fill:#f44336;fill-opacity:1;stroke-width:1.25" />
      </g>
    </g>
  </g>
</svg>
